<svg version="1.2" xmlns="http://www.w3.org/2000/svg" viewBox="0 -0.40300000000002 759.781 381.396" width="760" height="382">
	<title>Shaheen Ai</title>
	<style>
		.s0 { fill: #ffffff } 
	</style>
	<g id="Layer 1">
		<g id="&lt;Group&gt;">
			<g id="&lt;Group&gt;">
				<g id="&lt;Group&gt;">
				</g>
				<g id="&lt;Group&gt;">
				</g>
			</g>
			<g id="&lt;Group&gt;">
				<g id="&lt;Group&gt;">
				</g>
			</g>
		</g>
		<g id="&lt;Group&gt;">
			<g id="&lt;Group&gt;">
			</g>
		</g>
		<g id="&lt;Group&gt;">
			<g id="&lt;Group&gt;">
				<g id="&lt;Group&gt;">
				</g>
				<g id="&lt;Group&gt;">
					<path id="&lt;Path&gt;" class="s0" d="m356.3 220.5q-1 0-1.6 0.7-0.6 0.6-0.6 1.6 0 0.9 0.6 1.5 0.6 0.7 1.6 0.7 0.9 0 1.6-0.7 0.6-0.6 0.6-1.5 0-1-0.6-1.6-0.7-0.7-1.6-0.7z"/>
					<path id="&lt;Path&gt;" class="s0" d="m333 201.8q1.2 0 2-0.7 0.7-0.8 0.7-2 0-1.2-0.7-1.9-0.8-0.8-2-0.8-1.1 0-1.9 0.8-0.8 0.7-0.8 1.9 0 1.2 0.8 2 0.8 0.7 1.9 0.7z"/>
					<path id="&lt;Path&gt;" class="s0" d="m351.2 220.5q-0.9 0-1.6 0.7-0.6 0.6-0.6 1.6 0 0.9 0.6 1.5 0.7 0.7 1.6 0.7 1 0 1.6-0.7 0.6-0.6 0.6-1.5 0-1-0.6-1.6-0.6-0.7-1.6-0.7z"/>
					<path id="&lt;Compound Path&gt;" class="s0" d="m409.6 201.8q-3-1.2-7.2-2-0.2-0.1-0.4-0.1-0.4-0.1-0.9-0.2-3.6-0.6-7.8-1.2l-0.6 5q1 0.2 1.9 0.3 0.1 0 0.2 0-0.8 1.6-0.8 3.6 0 2.4 1.2 4.3 0.1 0.2 0.1 0.3-1.5 0.3-3.3 0.3h-33q-1.2 0-1.8-0.3-0.7-0.2-0.9-0.7-0.2-0.6-0.2-1.6v-7.7h-4.7v2.7q-1.8 0.3-3.8 0.3-1.6 0-3.2-0.2v-2.8h-4.7v1.6 5.7 4.2q0 2.4-0.8 4.1-0.8 1.6-2.3 2.4-1.5 0.9-3.8 0.9-2.2 0-3.7-0.9-1.4-0.8-2.1-2.4-0.7-1.7-0.7-4 0-0.9 0.1-1.9 0.1-1 0.3-1.9l-4.6-0.9q-0.2 1.1-0.4 2.3-0.1 1.2-0.1 2.4 0 2.7 0.7 5 0.7 2.3 2.1 4 1.4 1.8 3.5 2.7 2.1 1 4.9 1 2.8 0 5-1 2.2-0.9 3.7-2.7 1.4-1.7 2.2-4 0.7-2.4 0.7-5.1v-3.3q1.6 0.2 3.2 0.2 1.9 0 3.8-0.2 0.1 2.2 0.8 3.8 0.9 1.8 2.6 2.8 1.7 0.9 4.2 0.9h33q3.5 0 6.4-0.8 0.9-0.3 1.7-0.7 1.1 0.5 2.2 0.9 2.3 0.7 4.6 0.7 1.8 0 3.4-0.4 1.6-0.5 2.8-1.4 1.3-0.9 2-2.4 0.7-1.4 0.7-3.5 0-2.9-1.6-4.9-1.6-1.9-4.6-3.2zm-10.7 7.2q-0.8-1-0.8-2.1 0-0.8 0.4-1.3 0.3-0.6 0.8-1 0.6-0.3 1.2-0.3 0.7 0 1.3 0.3 0.6 0.4 0.9 1 0.4 0.6 0.4 1.3 0 0.9-0.8 1.8-0.8 0.9-2.3 1.6-0.7-0.6-1.1-1.3zm11.8 2.7q-0.4 0.6-1.3 0.9-0.8 0.3-2.1 0.3-1.3 0-2.4-0.2 0.7-0.9 1.2-1.8 1.1-1.9 1.1-3.9 0-0.5-0.1-0.9 1.7 0.6 2.6 1.4 1.4 1.2 1.4 2.8 0 0.9-0.4 1.4z"/>
					<path id="&lt;Path&gt;" class="s0" d="m481 201.8v7.7q0 1.4-0.8 2.1-0.8 0.6-1.8 0.6-0.9 0-1.7-0.5-0.4-0.4-0.7-1 0.1-0.2 0.1-0.4v-7h-4.8v6.2q0 1.4-0.8 2.1-0.7 0.6-1.7 0.6-0.9 0-1.7-0.5-0.5-0.5-0.8-1.2 0.1-0.5 0.1-1v-4.7h-4.8v4.7q0 1-0.2 1.6-0.2 0.5-0.8 0.7-0.7 0.3-1.9 0.3h-1.7-32.8v-21.2h-4.7v26.6h4.5 0.2 32.8 1.7q2.5 0 4.2-0.9 1.1-0.6 1.9-1.6 0.9 1.3 2.1 1.9 1.4 0.6 2.8 0.6 1.6 0 3.1-0.7 1-0.6 1.8-1.6 0.8 1.1 1.9 1.7 1.4 0.6 2.8 0.6 1.6 0 3.1-0.7 1.4-0.8 2.4-2.4 0.9-1.6 0.9-4.1v-8.5z"/>
					<path id="&lt;Path&gt;" class="s0" d="m473.7 194.1q0.9 0 1.5-0.6 0.6-0.6 0.6-1.5 0-0.9-0.6-1.5-0.6-0.7-1.5-0.7-1 0-1.6 0.7-0.6 0.6-0.6 1.5 0 0.9 0.6 1.5 0.6 0.6 1.6 0.6z"/>
					<path id="&lt;Path&gt;" class="s0" d="m474 196.5q0 1 0.6 1.6 0.7 0.6 1.6 0.6 1 0 1.6-0.6 0.6-0.6 0.6-1.6 0-1-0.6-1.6-0.6-0.6-1.6-0.6-0.9 0-1.6 0.6-0.6 0.6-0.6 1.6z"/>
					<path id="&lt;Path&gt;" class="s0" d="m471.1 198.7q1 0 1.6-0.6 0.7-0.6 0.7-1.6 0-1-0.7-1.6-0.6-0.6-1.6-0.6-0.9 0-1.5 0.6-0.7 0.6-0.7 1.6 0 1 0.7 1.6 0.6 0.6 1.5 0.6z"/>
				</g>
			</g>
			<g id="&lt;Group&gt;">
				<g id="&lt;Group&gt;">
				</g>
			</g>
		</g>
	</g>
</svg>